<mxfile host="app.diagrams.net" agent="Mozilla/5.0 (Windows NT 10.0; Win64; x64; rv:139.0) Gecko/20100101 Firefox/139.0" version="27.1.4">
  <diagram name="Use Cases" id="ZiQrT_tuKkAs1ExPT5KR">
    <mxGraphModel dx="872" dy="993" grid="1" gridSize="10" guides="1" tooltips="1" connect="1" arrows="1" fold="1" page="1" pageScale="1" pageWidth="850" pageHeight="1100" math="0" shadow="0">
      <root>
        <mxCell id="0" />
        <mxCell id="1" parent="0" />
        <mxCell id="uVi0bnUCJbSageLYhtC--15" style="rounded=0;orthogonalLoop=1;jettySize=auto;html=1;entryX=0;entryY=0.5;entryDx=0;entryDy=0;" edge="1" parent="1" source="uVi0bnUCJbSageLYhtC--1" target="uVi0bnUCJbSageLYhtC--2">
          <mxGeometry relative="1" as="geometry" />
        </mxCell>
        <mxCell id="uVi0bnUCJbSageLYhtC--16" style="edgeStyle=none;shape=connector;rounded=0;orthogonalLoop=1;jettySize=auto;html=1;entryX=0;entryY=0.5;entryDx=0;entryDy=0;strokeColor=default;align=center;verticalAlign=middle;fontFamily=Helvetica;fontSize=11;fontColor=default;labelBackgroundColor=default;endArrow=classic;" edge="1" parent="1" source="uVi0bnUCJbSageLYhtC--1" target="uVi0bnUCJbSageLYhtC--3">
          <mxGeometry relative="1" as="geometry" />
        </mxCell>
        <mxCell id="uVi0bnUCJbSageLYhtC--17" style="edgeStyle=none;shape=connector;rounded=0;orthogonalLoop=1;jettySize=auto;html=1;entryX=0;entryY=0.5;entryDx=0;entryDy=0;strokeColor=default;align=center;verticalAlign=middle;fontFamily=Helvetica;fontSize=11;fontColor=default;labelBackgroundColor=default;endArrow=classic;" edge="1" parent="1" source="uVi0bnUCJbSageLYhtC--1" target="uVi0bnUCJbSageLYhtC--4">
          <mxGeometry relative="1" as="geometry" />
        </mxCell>
        <mxCell id="uVi0bnUCJbSageLYhtC--18" style="edgeStyle=none;shape=connector;rounded=0;orthogonalLoop=1;jettySize=auto;html=1;entryX=0;entryY=0.5;entryDx=0;entryDy=0;strokeColor=default;align=center;verticalAlign=middle;fontFamily=Helvetica;fontSize=11;fontColor=default;labelBackgroundColor=default;endArrow=classic;" edge="1" parent="1" source="uVi0bnUCJbSageLYhtC--1" target="uVi0bnUCJbSageLYhtC--5">
          <mxGeometry relative="1" as="geometry" />
        </mxCell>
        <mxCell id="uVi0bnUCJbSageLYhtC--19" style="edgeStyle=none;shape=connector;rounded=0;orthogonalLoop=1;jettySize=auto;html=1;entryX=0;entryY=0.5;entryDx=0;entryDy=0;strokeColor=default;align=center;verticalAlign=middle;fontFamily=Helvetica;fontSize=11;fontColor=default;labelBackgroundColor=default;endArrow=classic;" edge="1" parent="1" source="uVi0bnUCJbSageLYhtC--1" target="uVi0bnUCJbSageLYhtC--11">
          <mxGeometry relative="1" as="geometry" />
        </mxCell>
        <mxCell id="uVi0bnUCJbSageLYhtC--20" style="edgeStyle=none;shape=connector;rounded=0;orthogonalLoop=1;jettySize=auto;html=1;entryX=0;entryY=0.5;entryDx=0;entryDy=0;strokeColor=default;align=center;verticalAlign=middle;fontFamily=Helvetica;fontSize=11;fontColor=default;labelBackgroundColor=default;endArrow=classic;" edge="1" parent="1" source="uVi0bnUCJbSageLYhtC--1" target="uVi0bnUCJbSageLYhtC--6">
          <mxGeometry relative="1" as="geometry" />
        </mxCell>
        <mxCell id="uVi0bnUCJbSageLYhtC--21" style="edgeStyle=none;shape=connector;rounded=0;orthogonalLoop=1;jettySize=auto;html=1;entryX=0;entryY=0.5;entryDx=0;entryDy=0;strokeColor=default;align=center;verticalAlign=middle;fontFamily=Helvetica;fontSize=11;fontColor=default;labelBackgroundColor=default;endArrow=classic;" edge="1" parent="1" source="uVi0bnUCJbSageLYhtC--1" target="uVi0bnUCJbSageLYhtC--8">
          <mxGeometry relative="1" as="geometry" />
        </mxCell>
        <mxCell id="uVi0bnUCJbSageLYhtC--1" value="Visitor" style="shape=umlActor;verticalLabelPosition=bottom;verticalAlign=top;html=1;outlineConnect=0;" vertex="1" parent="1">
          <mxGeometry x="80" y="480" width="30" height="60" as="geometry" />
        </mxCell>
        <mxCell id="uVi0bnUCJbSageLYhtC--22" style="edgeStyle=none;shape=connector;rounded=0;orthogonalLoop=1;jettySize=auto;html=1;entryX=0;entryY=0.5;entryDx=0;entryDy=0;strokeColor=default;align=center;verticalAlign=middle;fontFamily=Helvetica;fontSize=11;fontColor=default;labelBackgroundColor=default;endArrow=classic;" edge="1" parent="1" source="uVi0bnUCJbSageLYhtC--2" target="uVi0bnUCJbSageLYhtC--12">
          <mxGeometry relative="1" as="geometry" />
        </mxCell>
        <mxCell id="uVi0bnUCJbSageLYhtC--23" value="&amp;lt;&amp;lt;includes&amp;gt;&amp;gt;" style="edgeLabel;html=1;align=center;verticalAlign=middle;resizable=0;points=[];fontFamily=Helvetica;fontSize=11;fontColor=default;labelBackgroundColor=default;" vertex="1" connectable="0" parent="uVi0bnUCJbSageLYhtC--22">
          <mxGeometry x="-0.2615" y="-1" relative="1" as="geometry">
            <mxPoint x="12" y="-1" as="offset" />
          </mxGeometry>
        </mxCell>
        <mxCell id="uVi0bnUCJbSageLYhtC--2" value="View WM&#39;s Personal Information" style="ellipse;whiteSpace=wrap;html=1;" vertex="1" parent="1">
          <mxGeometry x="290" y="240" width="120" height="60" as="geometry" />
        </mxCell>
        <mxCell id="uVi0bnUCJbSageLYhtC--3" value="View WM&#39;s Contact" style="ellipse;whiteSpace=wrap;html=1;" vertex="1" parent="1">
          <mxGeometry x="290" y="320" width="120" height="60" as="geometry" />
        </mxCell>
        <mxCell id="uVi0bnUCJbSageLYhtC--4" value="View WM&#39;s Work Experiences" style="ellipse;whiteSpace=wrap;html=1;" vertex="1" parent="1">
          <mxGeometry x="290" y="400" width="120" height="60" as="geometry" />
        </mxCell>
        <mxCell id="uVi0bnUCJbSageLYhtC--5" value="&lt;div&gt;View WM&#39;s Education Records&lt;/div&gt;" style="ellipse;whiteSpace=wrap;html=1;" vertex="1" parent="1">
          <mxGeometry x="290" y="480" width="120" height="60" as="geometry" />
        </mxCell>
        <mxCell id="uVi0bnUCJbSageLYhtC--28" style="edgeStyle=none;shape=connector;rounded=0;orthogonalLoop=1;jettySize=auto;html=1;entryX=0;entryY=0.5;entryDx=0;entryDy=0;strokeColor=default;align=center;verticalAlign=middle;fontFamily=Helvetica;fontSize=11;fontColor=default;labelBackgroundColor=default;endArrow=classic;" edge="1" parent="1" source="uVi0bnUCJbSageLYhtC--6" target="uVi0bnUCJbSageLYhtC--7">
          <mxGeometry relative="1" as="geometry" />
        </mxCell>
        <mxCell id="uVi0bnUCJbSageLYhtC--29" value="&amp;lt;&amp;lt;includes&amp;gt;&amp;gt;" style="edgeLabel;html=1;align=center;verticalAlign=middle;resizable=0;points=[];fontFamily=Helvetica;fontSize=11;fontColor=default;labelBackgroundColor=default;" vertex="1" connectable="0" parent="uVi0bnUCJbSageLYhtC--28">
          <mxGeometry x="-0.1016" relative="1" as="geometry">
            <mxPoint as="offset" />
          </mxGeometry>
        </mxCell>
        <mxCell id="uVi0bnUCJbSageLYhtC--6" value="&lt;div&gt;View WM&#39;s Experienced Projects&lt;/div&gt;" style="ellipse;whiteSpace=wrap;html=1;" vertex="1" parent="1">
          <mxGeometry x="290" y="640" width="120" height="60" as="geometry" />
        </mxCell>
        <mxCell id="uVi0bnUCJbSageLYhtC--7" value="&lt;div&gt;View Details&lt;/div&gt;" style="ellipse;whiteSpace=wrap;html=1;" vertex="1" parent="1">
          <mxGeometry x="540" y="680" width="120" height="60" as="geometry" />
        </mxCell>
        <mxCell id="uVi0bnUCJbSageLYhtC--26" style="edgeStyle=none;shape=connector;rounded=0;orthogonalLoop=1;jettySize=auto;html=1;entryX=0;entryY=0.5;entryDx=0;entryDy=0;strokeColor=default;align=center;verticalAlign=middle;fontFamily=Helvetica;fontSize=11;fontColor=default;labelBackgroundColor=default;endArrow=classic;" edge="1" parent="1" source="uVi0bnUCJbSageLYhtC--8" target="uVi0bnUCJbSageLYhtC--7">
          <mxGeometry relative="1" as="geometry" />
        </mxCell>
        <mxCell id="uVi0bnUCJbSageLYhtC--27" value="&amp;lt;&amp;lt;includes&amp;gt;&amp;gt;" style="edgeLabel;html=1;align=center;verticalAlign=middle;resizable=0;points=[];fontFamily=Helvetica;fontSize=11;fontColor=default;labelBackgroundColor=default;" vertex="1" connectable="0" parent="uVi0bnUCJbSageLYhtC--26">
          <mxGeometry x="-0.1445" y="1" relative="1" as="geometry">
            <mxPoint as="offset" />
          </mxGeometry>
        </mxCell>
        <mxCell id="uVi0bnUCJbSageLYhtC--8" value="&lt;div&gt;View WM&#39;s Case Studies&lt;/div&gt;" style="ellipse;whiteSpace=wrap;html=1;" vertex="1" parent="1">
          <mxGeometry x="290" y="720" width="120" height="60" as="geometry" />
        </mxCell>
        <mxCell id="uVi0bnUCJbSageLYhtC--11" value="&lt;div&gt;View WM&#39;s Certified Certificates&lt;/div&gt;" style="ellipse;whiteSpace=wrap;html=1;" vertex="1" parent="1">
          <mxGeometry x="290" y="560" width="120" height="60" as="geometry" />
        </mxCell>
        <mxCell id="uVi0bnUCJbSageLYhtC--12" value="Download WM&#39;s CV" style="ellipse;whiteSpace=wrap;html=1;" vertex="1" parent="1">
          <mxGeometry x="540" y="240" width="120" height="60" as="geometry" />
        </mxCell>
        <mxCell id="uVi0bnUCJbSageLYhtC--13" value="View WM&#39;s Social Media Links" style="ellipse;whiteSpace=wrap;html=1;" vertex="1" parent="1">
          <mxGeometry x="540" y="320" width="120" height="60" as="geometry" />
        </mxCell>
        <mxCell id="uVi0bnUCJbSageLYhtC--24" style="edgeStyle=none;shape=connector;rounded=0;orthogonalLoop=1;jettySize=auto;html=1;entryX=0;entryY=0.5;entryDx=0;entryDy=0;strokeColor=default;align=center;verticalAlign=middle;fontFamily=Helvetica;fontSize=11;fontColor=default;labelBackgroundColor=default;endArrow=classic;" edge="1" parent="1" target="uVi0bnUCJbSageLYhtC--13">
          <mxGeometry relative="1" as="geometry">
            <mxPoint x="410" y="350" as="sourcePoint" />
          </mxGeometry>
        </mxCell>
        <mxCell id="uVi0bnUCJbSageLYhtC--25" value="&amp;lt;&amp;lt;includes&amp;gt;&amp;gt;" style="edgeLabel;html=1;align=center;verticalAlign=middle;resizable=0;points=[];fontFamily=Helvetica;fontSize=11;fontColor=default;labelBackgroundColor=default;" vertex="1" connectable="0" parent="uVi0bnUCJbSageLYhtC--24">
          <mxGeometry x="0.2774" y="-1" relative="1" as="geometry">
            <mxPoint x="-21" y="-2" as="offset" />
          </mxGeometry>
        </mxCell>
      </root>
    </mxGraphModel>
  </diagram>
</mxfile>
